<?xml version="1.0" encoding="UTF-8"?><svg id="_レイヤー_1" xmlns="http://www.w3.org/2000/svg" viewBox="0 0 449.84 145.71"><defs><style>.cls-1{fill-rule:evenodd;}.cls-1,.cls-2{fill:#fff;}</style></defs><path class="cls-2" d="M0,29.34h6.92v16.81c0,4.35,3.24,6.46,6.29,6.46s6.29-2.17,6.29-6.52v-16.75h6.92v17.21c0,4-1.26,7.09-3.77,9.21-2.52,2.12-5.66,3.14-9.49,3.14s-6.98-1.03-9.43-3.14C1.27,53.64,0,50.67,0,46.73v-17.38h0Z"/><path class="cls-2" d="M86.24,50.23c-2.1,1.86-4.48,2.78-7.2,2.78-4.96,0-8.29-2.83-8.67-7.21h22.36s.15-1.41.15-2.74c0-4.12-1.32-7.55-4-10.35-2.63-2.8-6.06-4.17-10.24-4.17-4.4,0-8.01,1.37-10.86,4.17-2.8,2.8-4.23,6.46-4.23,11.04v.23c0,4.52,1.43,8.12,4.23,10.81s6.52,4.06,11.04,4.06h0c5.25,0,9.43-2.07,12.57-5.64l-5.14-2.97h0ZM73.09,36.2c1.54-1.2,3.43-1.83,5.55-1.83,2,0,3.66.63,5.09,1.89,1.37,1.15,2.1,2.56,2.17,4.17h-15.35c.22-1.67,1.07-3.08,2.55-4.23h-.01Z"/><path class="cls-2" d="M155.89,62.73c-2.81,6.63-5.75,8.88-10.25,8.88h-3.12v-6.13h2.52c1.55,0,2.99-.58,4.36-3.75l1.37-3.17-11.84-29.22h7.03l8.41,21.04,8.63-21.04h7.03s-11.27,26.57-14.16,33.39h.02Z"/><path class="cls-2" d="M53.35,18.3v13.65c-2.27-2.03-5.79-3.24-9.21-3.24-4.06,0-7.49,1.43-10.29,4.35-2.74,2.86-4.12,6.4-4.12,10.69s1.37,7.83,4.12,10.75c2.8,2.86,6.23,4.29,10.29,4.29,4.68,0,7.64-1.84,9.21-3.28v2.65h6.86V18.31h-6.86ZM51.29,50.04c-1.66,1.66-3.77,2.52-6.23,2.52s-4.46-.86-6.12-2.52c-1.6-1.66-2.4-3.77-2.4-6.29s.8-4.63,2.4-6.29c1.66-1.66,3.66-2.52,6.12-2.52s4.57.86,6.23,2.52c1.72,1.66,2.57,3.77,2.57,6.29s-.86,4.63-2.57,6.29Z"/><path class="cls-2" d="M128.27,28.77c-5.21,0-7.92,2.16-9.78,4.25-.74-1.42-2.83-4.25-7.72-4.25-4.13,0-6.56,2.09-7.78,3.57v-3h-6.8v28.82h6.8v-16.58c0-3.89,2.4-6.69,5.6-6.69s5.15,2.46,5.15,6.4v16.87h6.8v-16.58c0-3.95,2.34-6.69,5.72-6.69s5.15,2.46,5.15,6.4v16.87h6.86v-17.84c0-7.52-4.04-11.55-10.01-11.55h.01Z"/><path class="cls-2" d="M173.76,34.66v-4.46h-1.44v-.86h3.84v.86h-1.44v4.46h-.96Z"/><path class="cls-2" d="M177.08,34.66v-5.33h.82l1.91,2.99,1.9-2.99h.81v5.33h-.9v-3.61l-1.81,2.81-1.83-2.8v3.6h-.9Z"/><path class="cls-2" d="M253.58,21.55c2.21.85,4.29,2,5.98,3.14,1.77.73,4.49,1.85,4.49,1.8-.49,2.57-.96,4.02-1.68,6.05-.52,1.48-1.53,4.59-1.94,6.38.79,1.06,2.37,2.98,2.37,3.04,1.4,1.99,2.77,6.68,2.39,9.47.88,3.06,4.28,7.02,11.21,9.18-.53.43-4.78,4.33-4.84,4.27-4.57-5.26-8.86-8.48-9.99-10.34-.21-3.2-.51-6.46-1.07-9.27-.64-.91-1.46-2.31-1.46-2.31l-1.54,6.53-11.34,15.65s-8.72-4.55-8.74-4.58c2.28-1.3,5.07-2.08,7.07-3.27,1.78-2.72,4.26-5.47,6.87-7.84,1.29-1.69,2.13-2.91,3.14-4.19.3-2.47,2.42-12.09,2.71-14.81-2.67,1.88-6.68,3.13-10.59,3.16s-6.84-.49-10.31-1.68c0,0,.57-1.99.63-2.1,5.14.87,11.3-.44,15.51-3.07-4.6-.76-9.49-2.94-13.4-7.68.03,0-.18-2.28-.18-2.28,0,0,3.11,1.22,3.08,1.17,3.38,2.7,7.82,3.3,11.61,3.59h.02Z"/><path class="cls-2" d="M261.94,21.06c.22-1.18.79-2.21,1.63-2.5.95-.33,1.79-.02,2.37,1.02-.33,1.03-.76,2.29-1.37,3.13-.57.2-1.05.32-1.59.17-.42-.11-.86-1.13-1.05-1.83h0Z"/><path class="cls-2" d="M275.73,30.54c-.06-.72.44-1.77,1.08-1.92.64-.16,1.22.17,1.58.58.36.39.36,1.09.26,1.55-.35.29-.52.44-.98.67h-.88c-.51-.26-.79-.53-1.05-.88h0Z"/><path class="cls-2" d="M270.58,34.33c1.23-.44,2.47-.65,3.89-.58.29-.06.96-.27.94-.3,2.92.1,6.19.98,9.08,3.01,2.86,2.02,5.87,6.44,4.61,12.67-2.82-7.24-6.89-10.63-10.26-12.06-.1-.11-.54-.48-.54-.48,0,0-.13.99-.14,1.2.83,3.53,1.09,6.1,1.47,9.28.24.69,1.62,3.38,1.62,3.38,0,0,1.98,2.84,2.73,4.14.86,1.46,3.45,6.25,4.6,8.25-1.14.43-5.48,2-5.48,2l-2.07-6.25s-2.35-5.62-3.01-7.04c-.86-2.64-1.69-5.33-2.42-7.17,0,0-1.52.18-1.55.21.26,1.44.18,2.45-.31,4.16-.57,1.94-2.61,5.03-4.4,7.61-.04,1.49-.24,4.24-.3,5.48-.5.63-1.01,1.55-1.01,1.55l-3.38,2.81c.32-6.82,1.67-10.43,3.61-14.29,2.24-2.14,3.93-4.17,3.4-6.99-1.17-2.46-1.51-4.82-1.68-7.25-.89,2.23-1.36,5.33-1.47,7.41-1.47,1.91-2.48,4.63-3.19,6.83.01,0-2.31-1.58-2.31-1.58.55-3.73,1.37-6.18,2.15-8.26,1.59-2.95,4.02-6.26,5.43-7.74h0Z"/><path class="cls-2" d="M296.52,48.66l-.27-.68c2.18-2.03,6.21-4.52,7.92-5.41.62-.74.63-2,.69-2.63,1.19-.4,2.55-.55,3.52-.58.07,1.41.07,4.08-2.16,5.28-1.67,2.42-4.44,4.21-9.7,4.02Z"/><path class="cls-2" d="M292.62,48.78l3.36-.74c-.15,1.73-.22,2.66-.2,3.35.01.69-.04,1.73-.14,2.59-.01-.02,12.01,1.13,12.01,1.13,0,0,1.44-.31,2.25-.62.19.69.9,2.91.9,2.91l-2.77.2c-3.14-1.22-5.57-1.27-7.22-1.15-1.51.42-3,.66-4.81.77-1.46.94-3.68,2.12-5.53,2.61-1.61.13-2.74.23-3.34.3-.6.07-1.86.37-2.31.44.02-.97,0-2.39,0-2.39,0,0,.57,0,1.2-.05.64-.05,3.52-.54,4.54-.89,1.63-1.05,3.09-1.65,4.43-2.29-.04-.24-.09-.67-.09-.67l-.64.11s-.82-1.54-1.14-2.42c-.32-.89-.45-1.46-.57-2.11-.18-.08-1.56-.72-1.56-.72-1.86.15-3.18.33-4.02.82-.56.58-2.04,2.53-2.04,2.53-.45-1.09,0-3.15.42-4.05.44-.97,2.2-2.13,3.37-2.06,1.64.1,2.35.59,3.9,2.41h0Z"/><path class="cls-2" d="M294.1,46.82l-.61-.18-.88-1.64c.25-.87.78-1.01,1.31-1,.53,0,.98.52,1.07.95.09.42.07.73.02,1-.23.41-.5.62-.91.86h0Z"/><path class="cls-1" d="M350.08,48.13l.79-2.03c1.62.11,3.18.16,4.65.04,0-3.73-1.16-6.16-3.36-6.16-1.73,0-3.56,1.92-3.56,6.98,0,4.1,2.09,9.02,6.96,9.02,1.69,0,2.87-.42,3.97-1.06l-.55,2.1s-2.22,1.52-5.45,1.52c-5.93,0-9.67-4.16-9.67-10.29s4.42-9.86,8.78-9.86c4.89,0,8.12,4.16,8.12,9.73-1.6-.07-3.35-.11-4.99-.11-1.8,0-3.54.06-5.68.11h-.01Z"/><path class="cls-1" d="M361.8,41.45l.56-1.45c1.99-.13,4.97-.73,6.76-1.32-.08,1.13-.13,1.56-.13,2.77,1.64-1.45,3.63-2.92,5.81-2.92,2.34,0,5.25,1.6,5.07,6.57-.1,2.96-.15,6.27-.15,8.91,0,1.74.86,2.71,2.92,2.81.03.01-.52,1.35-.52,1.35-2.1-.18-5.06-.19-6.89,0,0-3.12.1-7.83.1-11.52,0-2.72-.23-4.99-2.94-4.9-1.61.06-2.63,1-3.36,2-.12,3.39-.12,7.98-.05,11.02.03,1.2.67,1.87,2.5,2.05-.01,0-.55,1.35-.55,1.35-2.74-.2-6.36-.18-8.89-.02l-.26-1.37c1.67-.22,2.49-.74,2.64-2.01.22-1.71.31-4.46.31-7,0-2.97-.08-4.36-.34-5.1-.28-.8-1.19-1.3-2.6-1.23h.01Z"/><path class="cls-1" d="M413.68,38.7v4.9l-1.29.46c-.53-2.53-1.89-4.15-4.27-4.15s-3.16,1.66-3.16,2.75c0,1.02.49,1.99,1.9,2.51,1.38.51,3.83,1.41,5.02,1.9,1.41.59,3.41,2.07,3.41,4.97s-2.41,6.58-8.41,6.58c-1.59,0-4.08-.31-6.01-.31v-5.84l1.41-.51c.26,2.64,2.02,5.08,5.01,5.08s3.69-2.26,3.69-3.25c0-1.21-.76-2.05-2.02-2.65-1.42-.66-4.12-1.56-5.46-2.35-1.33-.8-2.46-2.21-2.46-4.4,0-2.31,1.82-5.94,7.52-5.94,1.59,0,3.6.3,5.1.27l.02-.02Z"/><path class="cls-1" d="M388.61,48.13l.78-2.03c1.61.11,3.18.16,4.65.04,0-3.73-1.15-6.16-3.36-6.16-1.73,0-3.56,1.92-3.56,6.98,0,4.1,2.09,9.02,6.96,9.02,1.69,0,2.87-.42,3.98-1.06l-.58,2.1s-2.23,1.52-5.44,1.52c-5.93,0-9.67-4.16-9.67-10.29s4.42-9.86,8.78-9.86c4.89,0,8.12,4.16,8.12,9.73-1.6-.07-3.35-.11-4.98-.11-1.79,0-3.53.06-5.69.11h0Z"/><path class="cls-1" d="M429.8,38.7v4.9l-1.27.46c-.54-2.53-1.9-4.15-4.27-4.15s-3.15,1.66-3.15,2.75c0,1.02.48,1.99,1.89,2.51,1.38.51,3.84,1.41,5.01,1.9,1.41.59,3.41,2.07,3.41,4.97s-2.4,6.58-8.39,6.58c-1.62,0-4.09-.31-6.03-.31v-5.84l1.41-.51c.26,2.64,2.03,5.08,5.02,5.08s3.7-2.26,3.7-3.25c0-1.21-.78-2.05-2.03-2.65-1.42-.66-4.13-1.56-5.47-2.35-1.32-.8-2.45-2.21-2.45-4.4,0-2.31,1.82-5.94,7.53-5.94,1.58,0,3.58.3,5.08.27v-.02Z"/><path class="cls-1" d="M439.16,48.13l.79-2.03c1.61.11,3.19.16,4.64.04,0-3.73-1.16-6.16-3.35-6.16-1.74,0-3.56,1.92-3.56,6.98,0,4.1,2.11,9.02,6.96,9.02,1.7,0,2.87-.42,3.98-1.06l-.57,2.1s-2.23,1.52-5.44,1.52c-5.93,0-9.67-4.16-9.67-10.29s4.42-9.86,8.77-9.86c4.9,0,8.13,4.16,8.13,9.73-1.61-.07-3.35-.11-5-.11-1.8,0-3.54.06-5.69.11h0Z"/><path class="cls-1" d="M330.22,33.73c2.1-.05,4.79.92,4.8,4.01,0,2.36-2.13,5.12-5.96,5.72l.6,1.6c3.27-.73,7.08.67,7.08,5.28s-3.95,6.41-5.83,6.41-3.25-.7-3.36-2.83c-.13-2.11-.16-5.62-.16-9.87s.11-6.91.2-8.35c.1-1.71.71-1.91,2.64-1.97M318.65,34.03l.71-1.73c2.66,0,2.84.12,4.58.12s6.6-.23,8.38-.23c5.17,0,8.34,1.51,8.34,5.43,0,2.89-3.71,4.94-5.64,5.78l.02.12c3.68.57,7.21,2.24,7.21,6.6,0,4.58-4.46,8.26-11.22,8.19-2.76-.04-4.75-.19-7.17-.19s-5.46.06-5.46.06l-.36-1.53c2.08-.15,3.99-.72,4.22-3.74.24-3.01.28-6.24.28-9.04s-.11-5.12-.17-6.62c-.12-2.21-.7-3.31-3.74-3.2l.02-.02Z"/><rect class="cls-2" x="208.94" width="1.25" height="79.95"/><path class="cls-2" d="M26.42,22.93l-13.21-7.63L0,22.93v-7.63l13.21-7.63,13.21,7.63v7.63Z"/><path class="cls-2" d="M193.01,138.33l-1.6-5.23h-7.99l-1.6,5.23h-5.01l7.75-22.05h5.69l7.78,22.05h-5.02ZM190.3,129.2l-1.6-5.1c-.1-.35-.24-.79-.4-1.32s-.33-1.08-.49-1.63-.3-1.03-.4-1.45c-.1.41-.24.92-.41,1.52-.17.6-.34,1.18-.49,1.72s-.27.93-.35,1.15l-1.57,5.1h5.72-.01Z"/><path class="cls-2" d="M209.64,121.23c1.8,0,3.25.49,4.34,1.46,1.09.97,1.63,2.54,1.63,4.69v10.95h-4.58v-9.81c0-1.21-.22-2.12-.65-2.72s-1.12-.91-2.06-.91c-1.39,0-2.35.48-2.86,1.43-.51.95-.77,2.32-.77,4.11v7.9h-4.58v-16.79h3.51l.61,2.15h.25c.53-.86,1.27-1.49,2.2-1.88.93-.39,1.92-.58,2.97-.58h-.01Z"/><path class="cls-2" d="M228.17,121.23c1.8,0,3.25.49,4.34,1.46,1.09.97,1.63,2.54,1.63,4.69v10.95h-4.58v-9.81c0-1.21-.22-2.12-.65-2.72s-1.12-.91-2.06-.91c-1.39,0-2.35.48-2.86,1.43-.51.95-.77,2.32-.77,4.11v7.9h-4.58v-16.79h3.51l.61,2.15h.25c.53-.86,1.27-1.49,2.2-1.88.93-.39,1.92-.58,2.97-.58h-.01Z"/><path class="cls-2" d="M239.32,114.96c.68,0,1.26.16,1.75.48s.74.91.74,1.77-.25,1.42-.74,1.75-1.08.49-1.75.49-1.29-.16-1.77-.49c-.48-.33-.72-.91-.72-1.75s.24-1.45.72-1.77c.48-.32,1.07-.48,1.77-.48ZM241.59,121.54v16.79h-4.58v-16.79h4.58Z"/><path class="cls-2" d="M250.08,138.33l-6.4-16.79h4.8l3.23,9.56c.18.57.33,1.17.43,1.78.1.61.17,1.17.22,1.66h.12c.06-1.11.29-2.25.68-3.44l3.23-9.56h4.8l-6.4,16.79h-4.71Z"/><path class="cls-2" d="M269.27,121.23c2.32,0,4.15.66,5.5,1.98s2.03,3.2,2.03,5.64v2.21h-10.82c.04,1.29.43,2.31,1.15,3.04.73.74,1.74,1.11,3.03,1.11,1.07,0,2.04-.11,2.94-.32s1.81-.55,2.75-1v3.54c-.84.41-1.71.71-2.61.91-.9.19-2,.29-3.29.29-1.68,0-3.17-.31-4.46-.94s-2.31-1.57-3.04-2.83c-.74-1.26-1.11-2.86-1.11-4.81s.33-3.58,1-4.89,1.59-2.3,2.78-2.95c1.19-.66,2.57-.98,4.15-.98h0ZM269.3,124.49c-.9,0-1.64.29-2.21.86-.57.57-.91,1.47-1.01,2.67h6.43c-.02-1-.29-1.85-.81-2.52-.52-.68-1.32-1.01-2.38-1.01h-.02Z"/><path class="cls-2" d="M288.53,121.23c.23,0,.49.01.8.03s.55.05.74.09l-.34,4.3c-.16-.04-.38-.08-.65-.11-.27-.03-.5-.05-.71-.05-.78,0-1.53.14-2.24.41-.72.28-1.3.72-1.74,1.34-.44.62-.66,1.46-.66,2.52v8.55h-4.58v-16.79h3.47l.68,2.83h.22c.49-.86,1.17-1.6,2.03-2.21.86-.62,1.86-.92,2.98-.92h0Z"/><path class="cls-2" d="M304.52,133.35c0,1.7-.6,3.01-1.8,3.92-1.2.91-2.99,1.37-5.37,1.37-1.17,0-2.17-.08-3.01-.23-.84-.15-1.68-.4-2.52-.75v-3.78c.9.41,1.88.75,2.92,1.02,1.05.27,1.97.4,2.77.4.88,0,1.52-.13,1.91-.4s.58-.62.58-1.05c0-.29-.08-.54-.23-.77-.15-.23-.49-.48-1-.77-.51-.29-1.31-.66-2.4-1.11-1.07-.45-1.93-.9-2.6-1.34s-1.16-.97-1.49-1.6c-.33-.62-.49-1.41-.49-2.35,0-1.56.6-2.73,1.81-3.51s2.82-1.17,4.83-1.17c1.05,0,2.04.1,2.98.31s1.92.54,2.92,1.02l-1.38,3.29c-.82-.35-1.6-.64-2.34-.88s-1.49-.35-2.24-.35c-1.35,0-2.03.37-2.03,1.11,0,.27.09.51.26.72.17.22.51.45,1.01.69.5.25,1.25.57,2.23.98.96.39,1.79.79,2.49,1.21.7.42,1.23.95,1.61,1.58.38.64.57,1.45.57,2.43h0Z"/><path class="cls-2" d="M314.36,121.2c2.26,0,3.98.49,5.18,1.46,1.2.97,1.8,2.47,1.8,4.47v11.19h-3.2l-.89-2.28h-.12c-.72.9-1.48,1.56-2.28,1.97s-1.9.61-3.29.61c-1.5,0-2.74-.43-3.72-1.29s-1.48-2.2-1.48-4.03.63-3.09,1.88-3.94c1.25-.84,3.13-1.31,5.63-1.41l2.92-.09v-.74c0-.88-.23-1.53-.69-1.94s-1.1-.61-1.92-.61-1.62.12-2.4.35c-.78.24-1.56.53-2.34.88l-1.51-3.11c.88-.45,1.88-.81,2.98-1.09s2.25-.41,3.44-.41h.01ZM316.79,130.55l-1.78.06c-1.48.04-2.5.31-3.08.8s-.86,1.14-.86,1.94c0,.7.2,1.19.61,1.49.41.3.94.45,1.6.45.98,0,1.81-.29,2.49-.88s1.01-1.41,1.01-2.48v-1.38h0Z"/><path class="cls-2" d="M333.32,121.23c.23,0,.49.01.8.03.31.02.55.05.74.09l-.34,4.3c-.16-.04-.38-.08-.65-.11-.27-.03-.5-.05-.71-.05-.78,0-1.53.14-2.24.41-.72.28-1.3.72-1.74,1.34-.44.62-.66,1.46-.66,2.52v8.55h-4.58v-16.79h3.47l.68,2.83h.22c.49-.86,1.17-1.6,2.03-2.21.86-.62,1.86-.92,2.98-.92h0Z"/><path class="cls-2" d="M335.96,121.54h5.01l3.17,9.44c.16.47.29.94.37,1.41s.14.97.18,1.51h.09c.06-.53.14-1.03.25-1.51.1-.47.24-.94.4-1.41l3.11-9.44h4.92l-7.1,18.94c-.66,1.74-1.59,3.05-2.8,3.92s-2.61,1.31-4.21,1.31c-.53,0-.98-.03-1.35-.08s-.7-.11-.98-.17v-3.63c.2.04.47.08.8.12s.67.06,1.01.06c.96,0,1.72-.29,2.28-.88.55-.58.97-1.29,1.26-2.11l.28-.83-6.67-16.67-.02.02Z"/><path class="cls-2" d="M148.81,133.1v-3.97h-5.02v4.34c0,.57.1,1.14.29,1.71s.49,1.09.9,1.56.93.85,1.58,1.15c.64.3,1.42.44,2.34.44h2.51v-4.22h-1.59c-.67,0-1.01-.34-1.01-1.01h0Z"/><polygon class="cls-2" points="148.81 122.5 148.81 117.79 143.79 117.79 143.79 122.5 141.06 122.5 141.06 126.36 143.79 126.36 148.81 126.36 151.41 126.36 151.41 122.5 148.81 122.5"/><path class="cls-2" d="M168.02,125.32c-.19-.78-.65-1.52-1.36-2.23-.45-.45-.98-.8-1.61-1.04-.62-.24-1.32-.37-2.1-.37-.32,0-.63.03-.94.08v4.59c.18.07.36.16.52.29.21.16.39.39.54.69.14.3.21.68.21,1.15v9.86h5.02v-10.53c0-.88-.1-1.7-.29-2.48h.01Z"/><polygon class="cls-2" points="159.25 123.21 159.25 119.85 159.25 116.53 154.23 116.53 154.23 138.33 159.25 138.33 159.25 130.2 159.25 128.47 159.25 123.21"/><rect class="cls-2" x="291.36" y="141.7" width="12.52" height="3.77"/><rect class="cls-2" x="275.24" y="141.7" width="12.52" height="3.77"/><rect class="cls-2" x="259.11" y="141.7" width="12.52" height="3.77"/><rect class="cls-2" x="242.98" y="141.7" width="12.52" height="3.77"/><rect class="cls-2" x="226.86" y="141.7" width="12.52" height="3.77"/><rect class="cls-2" x="210.73" y="141.7" width="12.52" height="3.77"/><rect class="cls-2" x="194.6" y="141.7" width="12.52" height="3.77"/><rect class="cls-2" x="178.48" y="141.7" width="12.52" height="3.77"/><rect class="cls-2" x="162.35" y="141.7" width="12.52" height="3.77"/><rect class="cls-2" x="146.22" y="141.7" width="12.52" height="3.77"/><polygon class="cls-2" points="110.07 101.97 103.42 101.97 97.64 106.99 97.64 114.14 110.07 103.35 110.07 101.97"/><path class="cls-2" d="M121.43,115.25v-2.77c0-1.53.41-2.64,1.23-3.52.82-.88,1.89-1.33,3.22-1.33s2.39.44,3.19,1.33c.8.89,1.2,1.99,1.2,3.52v3.96h6.64v-3.96c0-1.74-.3-3.28-.89-4.62-.6-1.34-1.4-2.48-2.4-3.4-1.01-.92-2.18-1.62-3.52-2.09-1.35-.48-2.75-.71-4.21-.71s-2.91.24-4.24.71c-1.33.48-2.5,1.17-3.53,2.09-1.02.92-1.83,2.05-2.43,3.4s-.89,2.89-.89,4.62v3.96h6.64v-1.2h-.01Z"/><path class="cls-2" d="M130.26,127.76c0,1.53-.4,2.73-1.2,3.6-.8.87-1.86,1.3-3.19,1.3s-2.4-.43-3.22-1.3-1.23-2.07-1.23-3.6v-8.54h-6.64v8.59c0,1.74.3,3.28.89,4.62.6,1.35,1.4,2.48,2.43,3.4,1.02.92,2.2,1.62,3.53,2.09,1.33.48,2.74.72,4.24.72s2.87-.24,4.21-.72c1.35-.48,2.52-1.17,3.52-2.09,1-.92,1.81-2.05,2.4-3.4.6-1.34.89-2.89.89-4.62v-8.59h-6.64v8.54h.01Z"/><polygon class="cls-2" points="103.42 112.78 103.42 138.33 110.07 138.33 110.07 107.01 103.42 112.78"/></svg>